<?xml version="1.0" encoding="UTF-8" standalone="no"?>
<!DOCTYPE svg PUBLIC "-//W3C//DTD SVG 1.1//EN" "http://www.w3.org/Graphics/SVG/1.1/DTD/svg11.dtd">
<svg xmlns="http://www.w3.org/2000/svg" xmlns:xlink="http://www.w3.org/1999/xlink" version="1.1" width="841.89pt" height="595.28pt" viewBox="0 0 841.89 595.28">
<g enable-background="new">
<g id="Layer-1" data-name="Layer 1">
<path transform="matrix(1,0,0,-1,0,595.28)" d="M 370.355 307.227 L 374.031 307.227 L 374.031 303.55799 L 370.355 303.55799 Z " fill="#918f90"/>
<path transform="matrix(1,0,0,-1,0,595.28)" d="M 374.68 307.227 L 378.328 307.227 L 378.328 303.55799 L 374.68 303.55799 Z " fill="#918f90"/>
<path transform="matrix(1,0,0,-1,0,595.28)" d="M 378.976 307.227 L 382.65003 307.227 L 382.65003 303.55799 L 378.976 303.55799 Z " fill="#918f90"/>
<path transform="matrix(1,0,0,-1,0,595.28)" d="M 383.292 307.227 L 386.95399 307.227 L 386.95399 303.55799 L 383.292 303.55799 Z " fill="#918f90"/>
<path transform="matrix(1,0,0,-1,0,595.28)" d="M 370.355 311.469 L 374.031 311.469 L 374.031 307.8 L 370.355 307.8 Z " fill="#918f90"/>
<path transform="matrix(1,0,0,-1,0,595.28)" d="M 374.68 311.469 L 378.328 311.469 L 378.328 307.8 L 374.68 307.8 Z " fill="#918f90"/>
<path transform="matrix(1,0,0,-1,0,595.28)" d="M 378.976 311.469 L 382.65003 311.469 L 382.65003 307.8 L 378.976 307.8 Z " fill="#918f90"/>
<path transform="matrix(1,0,0,-1,0,595.28)" d="M 383.292 311.469 L 386.95399 311.469 L 386.95399 307.8 L 383.292 307.8 Z " fill="#918f90"/>
<path transform="matrix(1,0,0,-1,0,595.28)" d="M 391.91 311.469 L 395.578 311.469 L 395.578 307.8 L 391.91 307.8 Z " fill="#918f90"/>
<path transform="matrix(1,0,0,-1,0,595.28)" d="M 370.355 315.685 L 374.031 315.685 L 374.031 312.024 L 370.355 312.024 Z " fill="#918f90"/>
<path transform="matrix(1,0,0,-1,0,595.28)" d="M 374.68 315.685 L 378.328 315.685 L 378.328 312.024 L 374.68 312.024 Z " fill="#918f90"/>
<path transform="matrix(1,0,0,-1,0,595.28)" d="M 383.292 315.685 L 386.95399 315.685 L 386.95399 312.024 L 383.292 312.024 Z " fill="#918f90"/>
<path transform="matrix(1,0,0,-1,0,595.28)" d="M 387.595 315.685 L 391.267 315.685 L 391.267 312.024 L 387.595 312.024 Z " fill="#918f90"/>
<path transform="matrix(1,0,0,-1,0,595.28)" d="M 391.91 315.685 L 395.578 315.685 L 395.578 312.024 L 391.91 312.024 Z " fill="#918f90"/>
<path transform="matrix(1,0,0,-1,0,595.28)" d="M 374.68 319.923 L 378.328 319.923 L 378.328 316.259 L 374.68 316.259 Z " fill="#918f90"/>
<path transform="matrix(1,0,0,-1,0,595.28)" d="M 378.976 319.923 L 382.65003 319.923 L 382.65003 316.259 L 378.976 316.259 Z " fill="#918f90"/>
<path transform="matrix(1,0,0,-1,0,595.28)" d="M 383.292 319.923 L 386.95399 319.923 L 386.95399 316.259 L 383.292 316.259 Z " fill="#918f90"/>
<path transform="matrix(1,0,0,-1,0,595.28)" d="M 387.595 319.923 L 391.267 319.923 L 391.267 316.259 L 387.595 316.259 Z " fill="#918f90"/>
<path transform="matrix(1,0,0,-1,0,595.28)" d="M 396.215 319.923 L 399.9 319.923 L 399.9 316.259 L 396.215 316.259 Z " fill="#918f90"/>
<path transform="matrix(1,0,0,-1,0,595.28)" d="M 374.68 324.151 L 378.328 324.151 L 378.328 320.483 L 374.68 320.483 Z " fill="#918f90"/>
<path transform="matrix(1,0,0,-1,0,595.28)" d="M 378.976 324.151 L 382.65003 324.151 L 382.65003 320.483 L 378.976 320.483 Z " fill="#918f90"/>
<path transform="matrix(1,0,0,-1,0,595.28)" d="M 383.292 324.151 L 386.95399 324.151 L 386.95399 320.483 L 383.292 320.483 Z " fill="#918f90"/>
<path transform="matrix(1,0,0,-1,0,595.28)" d="M 387.595 324.151 L 391.267 324.151 L 391.267 320.483 L 387.595 320.483 Z " fill="#918f90"/>
<path transform="matrix(1,0,0,-1,0,595.28)" d="M 391.91 324.151 L 395.578 324.151 L 395.578 320.483 L 391.91 320.483 Z " fill="#918f90"/>
<path transform="matrix(1,0,0,-1,0,595.28)" d="M 396.215 324.151 L 399.9 324.151 L 399.9 320.483 L 396.215 320.483 Z " fill="#918f90"/>
<path transform="matrix(1,0,0,-1,0,595.28)" d="M 400.524 324.151 L 404.194 324.151 L 404.194 320.483 L 400.524 320.483 Z " fill="#918f90"/>
<path transform="matrix(1,0,0,-1,0,595.28)" d="M 409.159 324.151 L 412.827 324.151 L 412.827 320.483 L 409.159 320.483 Z " fill="#918f90"/>
<path transform="matrix(1,0,0,-1,0,595.28)" d="M 383.292 328.38 L 386.95399 328.38 L 386.95399 324.713 L 383.292 324.713 Z " fill="#918f90"/>
<path transform="matrix(1,0,0,-1,0,595.28)" d="M 387.595 328.38 L 391.267 328.38 L 391.267 324.713 L 387.595 324.713 Z " fill="#918f90"/>
<path transform="matrix(1,0,0,-1,0,595.28)" d="M 396.215 328.38 L 399.9 328.38 L 399.9 324.713 L 396.215 324.713 Z " fill="#918f90"/>
<path transform="matrix(1,0,0,-1,0,595.28)" d="M 404.84 328.38 L 408.507 328.38 L 408.507 324.713 L 404.84 324.713 Z " fill="#918f90"/>
<path transform="matrix(1,0,0,-1,0,595.28)" d="M 378.976 332.61 L 382.65003 332.61 L 382.65003 328.939 L 378.976 328.939 Z " fill="#918f90"/>
<path transform="matrix(1,0,0,-1,0,595.28)" d="M 383.292 332.61 L 386.95399 332.61 L 386.95399 328.939 L 383.292 328.939 Z " fill="#918f90"/>
<path transform="matrix(1,0,0,-1,0,595.28)" d="M 387.595 332.61 L 391.267 332.61 L 391.267 328.939 L 387.595 328.939 Z " fill="#918f90"/>
<path transform="matrix(1,0,0,-1,0,595.28)" d="M 391.91 332.61 L 395.578 332.61 L 395.578 328.939 L 391.91 328.939 Z " fill="#918f90"/>
<path transform="matrix(1,0,0,-1,0,595.28)" d="M 396.215 332.61 L 399.9 332.61 L 399.9 328.939 L 396.215 328.939 Z " fill="#918f90"/>
<path transform="matrix(1,0,0,-1,0,595.28)" d="M 404.84 332.61 L 408.507 332.61 L 408.507 328.939 L 404.84 328.939 Z " fill="#918f90"/>
<path transform="matrix(1,0,0,-1,0,595.28)" d="M 426.382 332.61 L 430.06999 332.61 L 430.06999 328.939 L 426.382 328.939 Z " fill="#918f90"/>
<path transform="matrix(1,0,0,-1,0,595.28)" d="M 383.292 336.844 L 386.95399 336.844 L 386.95399 333.176 L 383.292 333.176 Z " fill="#918f90"/>
<path transform="matrix(1,0,0,-1,0,595.28)" d="M 391.91 336.844 L 395.578 336.844 L 395.578 333.176 L 391.91 333.176 Z " fill="#918f90"/>
<path transform="matrix(1,0,0,-1,0,595.28)" d="M 400.524 336.844 L 404.194 336.844 L 404.194 333.176 L 400.524 333.176 Z " fill="#918f90"/>
<path transform="matrix(1,0,0,-1,0,595.28)" d="M 409.159 336.844 L 412.827 336.844 L 412.827 333.176 L 409.159 333.176 Z " fill="#918f90"/>
<path transform="matrix(1,0,0,-1,0,595.28)" d="M 396.215 341.074 L 399.9 341.074 L 399.9 337.403 L 396.215 337.403 Z " fill="#918f90"/>
<path transform="matrix(1,0,0,-1,0,595.28)" d="M 404.84 341.074 L 408.507 341.074 L 408.507 337.403 L 404.84 337.403 Z " fill="#918f90"/>
<path transform="matrix(1,0,0,-1,0,595.28)" d="M 400.524 345.298 L 404.194 345.298 L 404.194 341.63 L 400.524 341.63 Z " fill="#918f90"/>
<path transform="matrix(1,0,0,-1,0,595.28)" d="M 409.159 345.298 L 412.827 345.298 L 412.827 341.63 L 409.159 341.63 Z " fill="#918f90"/>
<path transform="matrix(1,0,0,-1,0,595.28)" d="M 417.762 345.298 L 421.436 345.298 L 421.436 341.63 L 417.762 341.63 Z " fill="#918f90"/>
<path transform="matrix(1,0,0,-1,0,595.28)" d="M 396.215 349.537 L 399.9 349.537 L 399.9 345.86299 L 396.215 345.86299 Z " fill="#918f90"/>
<path transform="matrix(1,0,0,-1,0,595.28)" d="M 417.762 353.766 L 421.436 353.766 L 421.436 350.09199 L 417.762 350.09199 Z " fill="#918f90"/>
<path transform="matrix(1,0,0,-1,0,595.28)" d="M 430.69 353.766 L 434.367 353.766 L 434.367 350.09199 L 430.69 350.09199 Z " fill="#918f90"/>
<path transform="matrix(1,0,0,-1,0,595.28)" d="M 417.762 357.996 L 421.436 357.996 L 421.436 354.319 L 417.762 354.319 Z " fill="#918f90"/>
<path transform="matrix(1,0,0,-1,0,595.28)" d="M 417.762 362.224 L 421.436 362.224 L 421.436 358.552 L 417.762 358.552 Z " fill="#918f90"/>
<path transform="matrix(1,0,0,-1,0,595.28)" d="M 422.085 366.454 L 425.74699 366.454 L 425.74699 362.77903 L 422.085 362.77903 Z " fill="#918f90"/>
<path transform="matrix(1,0,0,-1,0,595.28)" d="M 360.299 315.384 L 369.68003 315.384 L 369.68003 313.625 L 360.299 313.625 Z " fill="#231f20"/>
<clipPath id="cp0">
<path transform="matrix(1,0,0,-1,0,595.28)" d="M 0 595.28 L 841.89 595.28 L 841.89 0 L 0 0 Z "/>
</clipPath>
<g clip-path="url(#cp0)">
<path transform="matrix(1,0,0,-1,349.8408,241.68552)" d="M 0 0 C -1.507 .164 -1.432 -.31 -3.425 -.631 C -5.417 -.958 -6.547 -3.021 -4.55 -2.792 C -2.549 -2.546 -1.673 -2.47 .085 -1.743 C 1.834 -1.032 0 0 0 0 M 1.528 -7.408 C -.547 -7.177 -.382 -7.884 -.956 -8.167 C -1.675 -8.521 .402 -8.846 2.007 -8.781 C 3.601 -8.688 3.601 -7.649 1.528 -7.408 M 19.939 -50.744 L 20.517 -50.744 L 35.665 -50.744 C 31.291 -55.642 21 -63.935 -2.315 -72.209 C -43.658 -86.905 -84.063 -69.264 -60.407 -35.673 C -37.276 -2.792 -.637 4.958 3.198 5.594 C 7.02 6.235 13.417 6.633 10.304 5.68 C 7.186 4.709 1.361 2.314 1.692 1.445 C 2.007 .56 5.835 1.519 7.976 1.847 C 10.144 2.16 10.144 .647 8.864 0 C 7.594 -.631 6.557 0 7.347 -.788 C 8.156 -1.592 7.678 -2.144 6.384 -2.708 C 5.118 -3.267 1.603 -3.021 .402 -4.151 C -.795 -5.252 2.63 -5.252 5.033 -4.3 C 7.433 -3.347 7.976 -3.104 10.627 -2.946 C 13.253 -2.792 10.78 -4.389 12.057 -4.944 C 13.337 -5.5 19.806 -4.224 18.128 -5.252 C 16.454 -6.298 21.324 -6.298 17.961 -7.26 C 14.608 -8.215 -16.831 -11.73 -40.933 -27.532 C -65.041 -43.332 -68.229 -76.047 -27.204 -67.908 C 2.706 -61.974 15.216 -48.316 19.806 -41.359 L 19.806 -50.744 Z " fill="#918f90"/>
<path transform="matrix(1,0,0,-1,317.3394,281.28373)" d="M 0 0 C 0 10.805 8.747 19.554 19.546 19.554 C 30.359 19.554 39.108 10.805 39.108 0 C 39.108 -10.795 30.359 -19.544 19.546 -19.544 C 8.747 -19.544 0 -10.795 0 0 " fill="#f68b1e"/>
<path transform="matrix(1,0,0,-1,323.6255,272.76515)" d="M 0 0 C -.854 1.924 .02 4.186 1.945 5.053 C 3.883 5.902 6.15 5.039 7.008 3.107 C 7.879 1.173 7.008 -1.091 5.069 -1.952 C 3.138 -2.815 .87 -1.934 0 0 " fill="#ffffff"/>
<path transform="matrix(1,0,0,-1,367.2432,236.00785)" d="M 0 0 C 0 .879 -3.751 .951 -4.307 .151 C -4.861 -.639 -6.856 -.328 -7.029 -1.041 C -7.171 -1.771 -5.345 -1.597 -3.751 -.972 C -2.14 -.328 0 -.88 0 0 " fill="#918f90"/>
<path transform="matrix(1,0,0,-1,370.0391,238.48242)" d="M 0 0 C -.556 .632 -4.231 .878 -5.349 .322 C -6.473 -.245 -7.905 -.809 -8.62 -.809 C -9.337 -.809 -8.293 -1.685 -6.381 -1.685 C -4.473 -1.685 -4.708 -1.196 -2.796 -1.519 C -.879 -1.838 .554 -.645 0 0 " fill="#918f90"/>
<path transform="matrix(1,0,0,-1,364.6904,241.83353)" d="M 0 0 C -1.985 -.483 -2.467 -.721 -3.514 -.966 C -4.551 -1.204 -3.589 -2 -1.274 -1.52 C 1.042 -1.05 1.755 -.884 2.871 -.81 C 4 -.721 3.831 .312 2.469 .395 C 1.123 .47 0 0 0 0 " fill="#918f90"/>
<path transform="matrix(1,0,0,-1,373.1479,241.11624)" d="M 0 0 C -.606 .907 -2.476 .317 -3.275 -.162 C -4.056 -.648 -3.908 -.717 -2.555 -.958 C -1.192 -1.2 .042 -.406 0 0 " fill="#918f90"/>
<path transform="matrix(1,0,0,-1,378.0957,242.95563)" d="M 0 0 C -.499 .238 -4.465 -.322 -5.102 -.163 C -5.743 0 -6.621 -.797 -7.981 -.797 C -9.336 -.797 -11.483 -.883 -10.688 -1.755 C -9.887 -2.632 -6.455 -2.159 -4.948 -1.832 C -3.416 -1.522 -1.833 -.797 -.391 -1.121 C 1.038 -1.433 .201 -.053 0 0 " fill="#918f90"/>
<path transform="matrix(1,0,0,-1,0,595.28)" d="M 264.611 315.447 L 312.809 315.447 L 312.809 313.685 L 264.611 313.685 Z " fill="#231f20"/>
<path transform="matrix(1,0,0,-1,0,595.28)" d="M 337.792 240.183 L 336.05 240.183 L 336.05 288.383 L 337.792 288.383 Z " fill="#231f20"/>
<path transform="matrix(1,0,0,-1,0,595.28)" d="M 337.792 340.122 L 336.05 340.122 L 336.05 388.31 L 337.792 388.31 Z " fill="#231f20"/>
<path transform="matrix(1,0,0,-1,0,595.28)" d="M 396.258 315.384 L 535.91299 315.384 L 535.91299 313.625 L 396.258 313.625 Z " fill="#231f20"/>
<path transform="matrix(1,0,0,-1,535.7764,280.77104)" d="M 0 0 C 0 1.934 1.573 3.508 3.518 3.508 C 5.464 3.508 7.028 1.934 7.028 0 C 7.028 -1.943 5.464 -3.518 3.518 -3.518 C 1.573 -3.518 0 -1.943 0 0 " fill="#d82c25"/>
<path transform="matrix(1,0,0,-1,333.4067,203.55625)" d="M 0 0 C 0 1.931 1.559 3.506 3.509 3.506 C 5.455 3.506 7.028 1.931 7.028 0 C 7.028 -1.946 5.455 -3.527 3.509 -3.527 C 1.559 -3.527 0 -1.946 0 0 " fill="#d82c25"/>
<path transform="matrix(1,0,0,-1,382.5459,343.34083)" d="M 0 0 C 0 1.075 -.291 1.925 -.875 2.543 C -1.468 3.165 -2.365 3.475 -3.57 3.475 L -11.552 3.475 L -11.552 -3.569 L -3.631 -3.569 C -2.391 -3.569 -1.468 -3.235 -.875 -2.563 C -.291 -1.884 0 -1.036 0 0 M -.838 13.966 C -.838 14.763 -1.051 15.447 -1.501 16.009 C -1.952 16.559 -2.772 16.841 -3.989 16.841 L -11.552 16.841 L -11.552 11.086 L -3.989 11.086 C -2.81 11.086 -1.988 11.347 -1.522 11.879 C -1.063 12.396 -.838 13.095 -.838 13.966 M 9.847 .186 C 9.847 -3.533 8.721 -6.406 6.479 -8.44 C 4.228 -10.483 .812 -11.502 -3.783 -11.502 L -21.191 -11.502 L -21.191 24.763 L -3.668 24.763 C .812 24.763 4.055 23.95 6.043 22.324 C 8.02 20.695 9.025 18.367 9.025 15.319 C 9.025 13.343 8.59 11.83 7.742 10.8 C 6.902 9.763 5.872 8.898 4.661 8.206 C 6.321 7.523 7.608 6.531 8.498 5.233 C 9.402 3.946 9.847 2.259 9.847 .186 " fill="#231f20"/>
<path transform="matrix(1,0,0,-1,0,595.28)" d="M 396.425 276.702 L 406.698 276.702 L 406.698 240.442 L 396.425 240.442 Z " fill="#231f20"/>
<path transform="matrix(1,0,0,-1,435.6006,354.83796)" d="M 0 0 L -8.659 11.966 C -9.077 12.521 -9.54 13.201 -10.107 14.011 C -10.664 14.827 -11.215 15.639 -11.738 16.447 C -12.275 17.259 -12.774 18.037 -13.245 18.765 C -13.698 19.477 -14.068 20.052 -14.307 20.462 C -14.238 20.052 -14.195 19.474 -14.153 18.729 C -14.115 17.98 -14.084 17.173 -14.053 16.29 C -14.015 15.413 -13.992 14.504 -13.992 13.571 L -13.992 11.091 L -13.992 0 L -23.626 0 L -23.626 36.26 L -14.771 36.26 L -6.79 25.537 C -6.375 24.988 -5.879 24.304 -5.318 23.461 C -4.743 22.646 -4.182 21.814 -3.633 20.979 C -3.079 20.153 -2.576 19.367 -2.126 18.653 C -1.675 17.925 -1.346 17.368 -1.145 16.999 C -1.213 17.405 -1.266 17.98 -1.294 18.729 C -1.328 19.474 -1.372 20.277 -1.416 21.163 C -1.437 22.051 -1.453 22.945 -1.453 23.883 L -1.453 26.375 L -1.453 36.26 L 8.181 36.26 L 8.181 0 Z " fill="#231f20"/>
<path transform="matrix(1,0,0,-1,479.1914,346.70613)" d="M 0 0 C -.804 -2.03 -1.935 -3.705 -3.375 -4.996 C -4.808 -6.284 -6.484 -7.229 -8.444 -7.815 C -10.405 -8.396 -12.506 -8.699 -14.791 -8.699 C -17.07 -8.699 -19.181 -8.396 -21.115 -7.815 C -23.051 -7.229 -24.719 -6.284 -26.113 -4.996 C -27.502 -3.705 -28.601 -2.03 -29.393 0 C -30.208 2.033 -30.595 4.502 -30.595 7.354 L -30.595 28.123 L -20.341 28.123 L -20.341 7.354 C -20.341 5.111 -19.879 3.347 -18.967 2.074 C -18.04 .789 -16.617 .154 -14.642 .154 C -12.666 .154 -11.24 .789 -10.37 2.074 C -9.483 3.347 -9.037 5.111 -9.037 7.354 L -9.037 28.123 L 1.218 28.123 L 1.218 7.354 C 1.218 4.502 .813 2.033 0 0 " fill="#231f20"/>
<path transform="matrix(1,0,0,-1,514.083,343.70515)" d="M 0 0 C 0 -2.068 -.378 -3.839 -1.119 -5.334 C -1.859 -6.814 -2.9 -8.025 -4.235 -8.96 C -5.556 -9.878 -7.132 -10.582 -8.961 -11.033 C -10.793 -11.479 -12.796 -11.707 -14.973 -11.707 C -17.91 -11.707 -20.714 -11.275 -23.39 -10.427 C -26.065 -9.581 -28.352 -8.544 -30.264 -7.302 L -25.386 .575 C -24.733 .123 -23.961 -.319 -23.076 -.74 C -22.206 -1.18 -21.286 -1.572 -20.331 -1.906 C -19.39 -2.257 -18.429 -2.525 -17.461 -2.741 C -16.491 -2.943 -15.598 -3.056 -14.765 -3.056 C -12.976 -3.056 -11.724 -2.878 -11.069 -2.525 C -10.391 -2.19 -10.043 -1.585 -10.043 -.721 C -10.043 -.382 -10.145 -.062 -10.328 .21 C -10.528 .486 -10.865 .76 -11.331 1.02 C -11.794 1.281 -12.409 1.536 -13.212 1.798 C -14.007 2.048 -15.01 2.321 -16.218 2.602 C -18.392 3.11 -20.298 3.663 -21.908 4.253 C -23.548 4.84 -24.889 5.577 -25.949 6.458 C -27.024 7.336 -27.834 8.396 -28.371 9.651 C -28.9 10.887 -29.171 12.418 -29.171 14.251 C -29.171 15.94 -28.834 17.496 -28.165 18.913 C -27.479 20.333 -26.524 21.535 -25.28 22.54 C -24.04 23.543 -22.547 24.314 -20.781 24.87 C -19.017 25.426 -17.051 25.703 -14.872 25.703 C -11.761 25.703 -9.064 25.339 -6.766 24.615 C -4.47 23.888 -2.349 22.855 -.421 21.51 L -5.29 13.634 C -6.915 14.732 -8.53 15.582 -10.156 16.165 C -11.779 16.755 -13.527 17.049 -15.39 17.049 C -16.911 17.049 -17.91 16.844 -18.392 16.434 C -18.87 16.011 -19.111 15.477 -19.111 14.82 C -19.111 14.479 -19.019 14.169 -18.838 13.923 C -18.656 13.66 -18.317 13.417 -17.886 13.192 C -17.425 12.975 -16.816 12.738 -16.071 12.511 C -15.313 12.294 -14.332 12.037 -13.164 11.764 C -10.886 11.212 -8.908 10.612 -7.253 9.955 C -5.598 9.291 -4.235 8.526 -3.168 7.627 C -2.093 6.72 -1.298 5.648 -.776 4.408 C -.263 3.164 0 1.7 0 0 " fill="#231f20"/>
<path transform="matrix(1,0,0,-1,371.5884,394.91603)" d="M 0 0 C -6.134 0 -10.269 4.137 -10.269 11.538 L -10.269 25.799 L -5.189 25.799 L -5.189 11.61 C -5.189 7.548 -3.23 4.97 0 4.97 C 3.229 4.97 5.224 7.474 5.224 11.538 L 5.224 25.799 L 10.304 25.799 L 10.304 11.61 C 10.304 4.245 6.458 0 0 0 " fill="#0097da"/>
<path transform="matrix(1,0,0,-1,404.2812,394.51765)" d="M 0 0 L -9.326 13.86 C -9.942 14.805 -10.778 16.073 -11.103 16.727 C -11.103 15.784 -11.031 12.591 -11.031 11.176 L -11.031 0 L -16.038 0 L -16.038 25.4 L -11.175 25.4 L -2.178 11.974 C -1.56 11.031 -.727 9.76 -.4 9.106 C -.4 10.051 -.472 13.244 -.472 14.659 L -.472 25.4 L 4.536 25.4 L 4.536 0 Z " fill="#0097da"/>
<path transform="matrix(1,0,0,-1,0,595.28)" d="M 415.711 226.163 L 420.791 226.163 L 420.791 200.763 L 415.711 200.763 Z " fill="#0097da"/>
<path transform="matrix(1,0,0,-1,439.8408,394.51765)" d="M 0 0 L -4.935 0 L -13.97 25.4 L -8.346 25.4 L -3.556 10.704 C -3.084 9.289 -2.576 7.437 -2.358 6.531 C -2.141 7.475 -1.669 9.216 -1.197 10.704 L 3.483 25.4 L 9.034 25.4 Z " fill="#0097da"/>
<path transform="matrix(1,0,0,-1,453.5928,394.51765)" d="M 0 0 L 0 25.4 L 17.635 25.4 L 17.635 20.429 L 5.08 20.429 L 5.08 16.038 L 12.374 16.038 L 12.374 11.104 L 5.08 11.104 L 5.08 4.971 L 18.179 4.971 L 18.179 0 Z " fill="#0097da"/>
<path transform="matrix(1,0,0,-1,488.8984,374.0537)" d="M 0 0 L -6.64 0 L -6.64 -6.53 L 0 -6.53 C 2.358 -6.53 3.629 -5.441 3.629 -3.229 C 3.629 -.942 2.25 0 0 0 M 3.011 -20.464 L -1.524 -11.319 L -6.64 -11.319 L -6.64 -20.464 L -11.72 -20.464 L -11.72 4.937 L .108 4.937 C 4.898 4.937 8.854 2.287 8.854 -3.119 C 8.854 -6.93 7.221 -9.324 3.991 -10.595 L 8.854 -20.464 Z " fill="#0097da"/>
<path transform="matrix(1,0,0,-1,511.7217,394.91603)" d="M 0 0 C -4.246 0 -7.945 1.777 -9.869 4.607 L -6.204 7.873 C -4.427 5.806 -2.141 4.97 .29 4.97 C 3.302 4.97 4.718 5.806 4.718 7.728 C 4.718 9.36 3.847 10.086 -.943 11.175 C -5.623 12.263 -8.89 13.752 -8.89 18.759 C -8.89 23.367 -4.826 26.196 .182 26.196 C 4.137 26.196 7.04 24.709 9.435 22.205 L 5.77 18.649 C 4.137 20.318 2.322 21.263 0 21.263 C -2.722 21.263 -3.628 20.101 -3.628 18.977 C -3.628 17.38 -2.54 16.872 1.487 15.929 C 5.516 14.985 9.979 13.606 9.979 8.091 C 9.979 3.266 6.931 0 0 0 " fill="#0097da"/>
<path transform="matrix(1,0,0,-1,0,595.28)" d="M 527.434 226.163 L 532.51406 226.163 L 532.51406 200.763 L 527.434 200.763 Z " fill="#0097da"/>
<path transform="matrix(1,0,0,-1,550.1475,374.12605)" d="M 0 0 L 0 -20.392 L -5.079 -20.392 L -5.079 0 L -12.372 0 L -12.372 5.009 L 7.294 5.009 L 7.294 0 Z " fill="#0097da"/>
<path transform="matrix(1,0,0,-1,574.5674,384.46684)" d="M 0 0 L 0 -10.051 L -5.08 -10.051 L -5.08 -.108 L -14.695 15.35 L -8.853 15.35 L -5.261 9.324 C -4.354 7.802 -2.976 5.298 -2.503 4.354 C -2.032 5.298 -.688 7.729 .255 9.324 L 3.847 15.35 L 9.616 15.35 Z " fill="#0097da"/>
<path transform="matrix(1,0,0,-1,333.4385,358.4912)" d="M 0 0 C 0 1.94 1.577 3.515 3.518 3.515 C 5.452 3.515 7.023 1.94 7.023 0 C 7.023 -1.937 5.452 -3.511 3.518 -3.511 C 1.577 -3.511 0 -1.937 0 0 " fill="#d82c25"/>
<path transform="matrix(1,0,0,-1,257.707,280.71443)" d="M 0 0 C 0 1.937 1.561 3.513 3.507 3.513 C 5.453 3.513 7.013 1.937 7.013 0 C 7.013 -1.937 5.453 -3.512 3.507 -3.512 C 1.561 -3.512 0 -1.937 0 0 " fill="#d82c25"/>
</g>
</g>
</g>
</svg>
